<svg enable-background="new 0 0 1024 1024" viewBox="0 0 1024 1024" xmlns="http://www.w3.org/2000/svg"><circle cx="512" cy="512" fill="#0052cc" r="512"/><g fill="#fff"><path d="m413.7 462.6c-4.6-6-13.2-7.2-19.3-2.6-1.8 1.3-3.2 3.1-4.1 5.1l-118.3 236.8c-3.5 7-.7 15.5 6.3 19 2 1 4.1 1.5 6.3 1.5h164.9c5.4.1 10.4-2.9 12.7-7.8 35.5-73.6 14-185.3-48.5-252z"/><path d="m500.6 247.2c-60 92.4-67 209.5-18.2 308.3l79.5 159c2.4 4.8 7.3 7.8 12.7 7.8h164.9c7.8 0 14.2-6.3 14.2-14.2 0-2.2-.5-4.4-1.5-6.3 0 0-221.8-443.7-227.4-454.8-3.2-6.6-11.2-9.4-17.9-6.2-2.8 1.5-5 3.7-6.3 6.4z"/></g></svg>