<?xml version="1.0" encoding="UTF-8"?>
<!DOCTYPE svg PUBLIC "-//W3C//DTD SVG 1.1//EN" "http://www.w3.org/Graphics/SVG/1.1/DTD/svg11.dtd">
<svg xmlns="http://www.w3.org/2000/svg" version="1.1" width="225px" height="225px" style="shape-rendering:geometricPrecision; text-rendering:geometricPrecision; image-rendering:optimizeQuality; fill-rule:evenodd; clip-rule:evenodd" xmlns:xlink="http://www.w3.org/1999/xlink">
<g><path style="opacity:1" fill="#fdfefd" d="M -0.5,-0.5 C 74.5,-0.5 149.5,-0.5 224.5,-0.5C 224.5,74.5 224.5,149.5 224.5,224.5C 149.5,224.5 74.5,224.5 -0.5,224.5C -0.5,149.5 -0.5,74.5 -0.5,-0.5 Z"/></g>
<g><path style="opacity:1" fill="#71c166" d="M 95.5,13.5 C 146.917,9.17113 183.417,30.1711 205,76.5C 220.016,125.112 207.516,164.945 167.5,196C 150.736,206.811 132.402,212.145 112.5,212C 126,206.167 139.5,200.333 153,194.5C 155.251,195.56 157.418,196.393 159.5,197C 157.743,194.154 155.743,191.488 153.5,189C 148.168,184.999 142.502,181.499 136.5,178.5C 148.445,167.274 157.945,154.274 165,139.5C 167.245,132.649 167.912,125.649 167,118.5C 165.274,122.953 163.274,127.286 161,131.5C 159.667,130.167 158.333,128.833 157,127.5C 135.5,139.334 113.667,150.167 91.5,160C 87.8333,157.167 84.1667,154.333 80.5,151.5C 106.279,138.11 132.279,124.943 158.5,112C 160.268,107.631 159.268,103.965 155.5,101C 154.167,100.333 152.833,100.333 151.5,101C 125.259,114.288 98.9255,127.288 72.5,140C 71.8095,141.067 71.3095,142.234 71,143.5C 67.6667,140.167 64.3333,136.833 61,133.5C 65.7979,151.313 76.2979,164.813 92.5,174C 98.7181,176.942 105.051,179.609 111.5,182C 106.985,186.215 102.818,190.715 99,195.5C 95.9042,200.702 92.5708,205.702 89,210.5C 44.4998,197.187 18.8332,167.52 12,121.5C 10.1719,80.5846 26.3386,49.0846 60.5,27C 71.6378,20.7932 83.3044,16.2932 95.5,13.5 Z"/></g>
<g><path style="opacity:1" fill="#fbfdfb" d="M 104.5,16.5 C 107.187,16.3359 109.854,16.5026 112.5,17C 108.608,22.9533 105.442,29.1199 103,35.5C 120.973,41.9808 136.64,51.9808 150,65.5C 160.791,78.2068 165.791,92.8734 165,109.5C 157.709,91.5484 146.042,77.215 130,66.5C 106.434,77.6998 82.9339,89.0331 59.5,100.5C 58.0546,106.247 56.5546,111.913 55,117.5C 54.1138,108.105 54.4471,98.7716 56,89.5C 61.4827,74.2014 68.316,59.5347 76.5,45.5C 68.5469,43.476 60.5469,41.6426 52.5,40C 58.2053,34.6347 64.7053,30.468 72,27.5C 76.1897,28.4376 80.3563,29.4376 84.5,30.5C 86.9437,26.8818 89.6104,23.3818 92.5,20C 96.6469,18.8905 100.647,17.7239 104.5,16.5 Z"/></g>
<g><path style="opacity:1" fill="#71c166" d="M 92.5,49.5 C 101.804,51.7683 110.804,54.935 119.5,59C 102.379,67.6437 85.2128,76.1437 68,84.5C 67.6848,83.0922 68.0181,81.7589 69,80.5C 77.4335,70.5738 85.2668,60.2405 92.5,49.5 Z"/></g>
<g><path style="opacity:1" fill="#fbfdfb" d="M 139.5,79.5 C 145.706,81.2443 147.706,85.2443 145.5,91.5C 118.71,104.395 92.0435,117.562 65.5,131C 63.6332,131.711 62.1332,131.211 61,129.5C 58.5878,126.203 58.0878,122.703 59.5,119C 86.3815,106.059 113.048,92.892 139.5,79.5 Z"/></g>
<g><path style="opacity:1" fill="#72c167" d="M 152.5,141.5 C 153.239,141.369 153.906,141.536 154.5,142C 145.297,153.114 134.963,163.114 123.5,172C 117.121,171.657 111.121,169.824 105.5,166.5C 121.387,158.392 137.053,150.059 152.5,141.5 Z"/></g>
<g><path style="opacity:1" fill="#72c167" d="M 125.5,186.5 C 130.815,187.996 136.148,189.496 141.5,191C 128.503,196.676 115.503,202.009 102.5,207C 110.063,199.93 117.73,193.097 125.5,186.5 Z"/></g>
</svg>
